<svg width="263" height="161" viewBox="0 0 263 161" fill="none" xmlns="http://www.w3.org/2000/svg">
<rect width="263" height="161" rx="24" fill="black"/>
<path d="M30.3105 111H20.9355V39.9062H30.3105V111ZM59.6074 39.9062L82.8496 97.9141L106.092 39.9062H118.25V111H108.875V83.3145L109.754 53.4316L86.4141 111H79.2363L55.9453 53.5781L56.873 83.3145V111H47.498V39.9062H59.6074ZM134.803 111V39.9062H154.871C161.056 39.9062 166.525 41.2734 171.277 44.0078C176.03 46.7422 179.692 50.6322 182.264 55.6777C184.868 60.7233 186.186 66.5176 186.219 73.0605V77.6016C186.219 84.3073 184.917 90.1829 182.312 95.2285C179.741 100.274 176.046 104.148 171.229 106.85C166.443 109.551 160.861 110.935 154.48 111H134.803ZM144.178 47.6211V103.334H154.041C161.268 103.334 166.883 101.088 170.887 96.5957C174.923 92.1035 176.941 85.707 176.941 77.4062V73.2559C176.941 65.1829 175.037 58.9167 171.229 54.457C167.452 49.9648 162.081 47.6862 155.115 47.6211H144.178ZM243.738 85.1699C243.738 93.2428 241.883 99.737 238.172 104.652C234.461 109.535 229.48 111.977 223.23 111.977C216.557 111.977 211.398 109.617 207.752 104.896L207.312 111H199.012V36H208.045V63.9785C211.691 59.4538 216.72 57.1914 223.133 57.1914C229.546 57.1914 234.575 59.6165 238.221 64.4668C241.899 69.3171 243.738 75.9577 243.738 84.3887V85.1699ZM234.705 84.1445C234.705 77.9922 233.517 73.2396 231.141 69.8867C228.764 66.5339 225.346 64.8574 220.887 64.8574C214.93 64.8574 210.649 67.6243 208.045 73.1582V96.0098C210.812 101.544 215.125 104.311 220.984 104.311C225.314 104.311 228.683 102.634 231.092 99.2812C233.501 95.9284 234.705 90.8828 234.705 84.1445Z" fill="white"/>
</svg>
