<svg width="300" height="442" viewBox="0 0 300 442" fill="none" xmlns="http://www.w3.org/2000/svg">
<rect width="300" height="442" fill="#C4C4C4"/>
<path d="M81.006 112C83.486 112 85.6327 112.413 87.446 113.24C89.286 114.067 90.6994 115.24 91.686 116.76C92.6727 118.28 93.166 120.08 93.166 122.16C93.166 124.213 92.6727 126.013 91.686 127.56C90.6994 129.08 89.286 130.253 87.446 131.08C85.6327 131.88 83.486 132.28 81.006 132.28H75.366V140H68.886V112H81.006ZM80.646 127C82.5927 127 84.0727 126.587 85.086 125.76C86.0994 124.907 86.606 123.707 86.606 122.16C86.606 120.587 86.0994 119.387 85.086 118.56C84.0727 117.707 82.5927 117.28 80.646 117.28H75.366V127H80.646ZM111.743 140.48C108.836 140.48 106.21 139.853 103.863 138.6C101.543 137.347 99.7163 135.627 98.3829 133.44C97.0763 131.227 96.4229 128.747 96.4229 126C96.4229 123.253 97.0763 120.787 98.3829 118.6C99.7163 116.387 101.543 114.653 103.863 113.4C106.21 112.147 108.836 111.52 111.743 111.52C114.65 111.52 117.263 112.147 119.583 113.4C121.903 114.653 123.73 116.387 125.063 118.6C126.396 120.787 127.063 123.253 127.063 126C127.063 128.747 126.396 131.227 125.063 133.44C123.73 135.627 121.903 137.347 119.583 138.6C117.263 139.853 114.65 140.48 111.743 140.48ZM111.743 134.96C113.396 134.96 114.89 134.587 116.223 133.84C117.556 133.067 118.596 132 119.343 130.64C120.116 129.28 120.503 127.733 120.503 126C120.503 124.267 120.116 122.72 119.343 121.36C118.596 120 117.556 118.947 116.223 118.2C114.89 117.427 113.396 117.04 111.743 117.04C110.09 117.04 108.596 117.427 107.263 118.2C105.93 118.947 104.876 120 104.103 121.36C103.356 122.72 102.983 124.267 102.983 126C102.983 127.733 103.356 129.28 104.103 130.64C104.876 132 105.93 133.067 107.263 133.84C108.596 134.587 110.09 134.96 111.743 134.96ZM141.133 140.48C138.92 140.48 136.773 140.187 134.693 139.6C132.64 138.987 130.986 138.2 129.733 137.24L131.933 132.36C133.133 133.24 134.56 133.947 136.213 134.48C137.866 135.013 139.52 135.28 141.173 135.28C143.013 135.28 144.373 135.013 145.253 134.48C146.133 133.92 146.573 133.187 146.573 132.28C146.573 131.613 146.306 131.067 145.773 130.64C145.266 130.187 144.6 129.827 143.773 129.56C142.973 129.293 141.88 129 140.493 128.68C138.36 128.173 136.613 127.667 135.253 127.16C133.893 126.653 132.72 125.84 131.733 124.72C130.773 123.6 130.293 122.107 130.293 120.24C130.293 118.613 130.733 117.147 131.613 115.84C132.493 114.507 133.813 113.453 135.573 112.68C137.36 111.907 139.533 111.52 142.093 111.52C143.88 111.52 145.626 111.733 147.333 112.16C149.04 112.587 150.533 113.2 151.813 114L149.813 118.92C147.226 117.453 144.64 116.72 142.053 116.72C140.24 116.72 138.893 117.013 138.013 117.6C137.16 118.187 136.733 118.96 136.733 119.92C136.733 120.88 137.226 121.6 138.213 122.08C139.226 122.533 140.76 122.987 142.813 123.44C144.946 123.947 146.693 124.453 148.053 124.96C149.413 125.467 150.573 126.267 151.533 127.36C152.52 128.453 153.013 129.933 153.013 131.8C153.013 133.4 152.56 134.867 151.653 136.2C150.773 137.507 149.44 138.547 147.653 139.32C145.866 140.093 143.693 140.48 141.133 140.48ZM162.85 117.28H153.89V112H178.29V117.28H169.33V140H162.85V117.28ZM203.457 134.8V140H181.777V112H202.937V117.2H188.217V123.28H201.217V128.32H188.217V134.8H203.457ZM226.453 140L221.053 132.2H220.733H215.093V140H208.613V112H220.733C223.213 112 225.359 112.413 227.173 113.24C229.013 114.067 230.426 115.24 231.413 116.76C232.399 118.28 232.893 120.08 232.893 122.16C232.893 124.24 232.386 126.04 231.373 127.56C230.386 129.053 228.973 130.2 227.133 131L233.413 140H226.453ZM226.333 122.16C226.333 120.587 225.826 119.387 224.813 118.56C223.799 117.707 222.319 117.28 220.373 117.28H215.093V127.04H220.373C222.319 127.04 223.799 126.613 224.813 125.76C225.826 124.907 226.333 123.707 226.333 122.16ZM133.941 161V189H128.621L114.661 172V189H108.261V161H113.621L127.541 178V161H133.941ZM154.126 189.48C151.219 189.48 148.592 188.853 146.246 187.6C143.926 186.347 142.099 184.627 140.766 182.44C139.459 180.227 138.806 177.747 138.806 175C138.806 172.253 139.459 169.787 140.766 167.6C142.099 165.387 143.926 163.653 146.246 162.4C148.592 161.147 151.219 160.52 154.126 160.52C157.032 160.52 159.646 161.147 161.966 162.4C164.286 163.653 166.112 165.387 167.446 167.6C168.779 169.787 169.446 172.253 169.446 175C169.446 177.747 168.779 180.227 167.446 182.44C166.112 184.627 164.286 186.347 161.966 187.6C159.646 188.853 157.032 189.48 154.126 189.48ZM154.126 183.96C155.779 183.96 157.272 183.587 158.606 182.84C159.939 182.067 160.979 181 161.726 179.64C162.499 178.28 162.886 176.733 162.886 175C162.886 173.267 162.499 171.72 161.726 170.36C160.979 169 159.939 167.947 158.606 167.2C157.272 166.427 155.779 166.04 154.126 166.04C152.472 166.04 150.979 166.427 149.646 167.2C148.312 167.947 147.259 169 146.486 170.36C145.739 171.72 145.366 173.267 145.366 175C145.366 176.733 145.739 178.28 146.486 179.64C147.259 181 148.312 182.067 149.646 182.84C150.979 183.587 152.472 183.96 154.126 183.96ZM179.725 166.28H170.765V161H195.165V166.28H186.205V189H179.725V166.28ZM81.9871 215.2V222.6H94.9471V227.8H81.9871V238H75.5071V210H96.6671V215.2H81.9871ZM114.341 238.48C111.434 238.48 108.807 237.853 106.461 236.6C104.141 235.347 102.314 233.627 100.981 231.44C99.6739 229.227 99.0206 226.747 99.0206 224C99.0206 221.253 99.6739 218.787 100.981 216.6C102.314 214.387 104.141 212.653 106.461 211.4C108.807 210.147 111.434 209.52 114.341 209.52C117.247 209.52 119.861 210.147 122.181 211.4C124.501 212.653 126.327 214.387 127.661 216.6C128.994 218.787 129.661 221.253 129.661 224C129.661 226.747 128.994 229.227 127.661 231.44C126.327 233.627 124.501 235.347 122.181 236.6C119.861 237.853 117.247 238.48 114.341 238.48ZM114.341 232.96C115.994 232.96 117.487 232.587 118.821 231.84C120.154 231.067 121.194 230 121.941 228.64C122.714 227.28 123.101 225.733 123.101 224C123.101 222.267 122.714 220.72 121.941 219.36C121.194 218 120.154 216.947 118.821 216.2C117.487 215.427 115.994 215.04 114.341 215.04C112.687 215.04 111.194 215.427 109.861 216.2C108.527 216.947 107.474 218 106.701 219.36C105.954 220.72 105.581 222.267 105.581 224C105.581 225.733 105.954 227.28 106.701 228.64C107.474 230 108.527 231.067 109.861 231.84C111.194 232.587 112.687 232.96 114.341 232.96ZM146.971 238.48C142.971 238.48 139.851 237.373 137.611 235.16C135.397 232.947 134.291 229.787 134.291 225.68V210H140.771V225.44C140.771 230.453 142.851 232.96 147.011 232.96C149.037 232.96 150.584 232.36 151.651 231.16C152.717 229.933 153.251 228.027 153.251 225.44V210H159.651V225.68C159.651 229.787 158.531 232.947 156.291 235.16C154.077 237.373 150.971 238.48 146.971 238.48ZM191.734 210V238H186.414L172.454 221V238H166.054V210H171.414L185.334 227V210H191.734ZM198.359 210H211.079C214.119 210 216.799 210.587 219.119 211.76C221.465 212.907 223.279 214.533 224.559 216.64C225.865 218.747 226.519 221.2 226.519 224C226.519 226.8 225.865 229.253 224.559 231.36C223.279 233.467 221.465 235.107 219.119 236.28C216.799 237.427 214.119 238 211.079 238H198.359V210ZM210.759 232.68C213.559 232.68 215.785 231.907 217.439 230.36C219.119 228.787 219.959 226.667 219.959 224C219.959 221.333 219.119 219.227 217.439 217.68C215.785 216.107 213.559 215.32 210.759 215.32H204.839V232.68H210.759ZM142.994 321.96C141.9 321.96 140.98 321.587 140.234 320.84C139.487 320.093 139.114 319.16 139.114 318.04C139.114 316.893 139.487 315.973 140.234 315.28C140.98 314.56 141.9 314.2 142.994 314.2C144.087 314.2 145.007 314.56 145.754 315.28C146.5 315.973 146.874 316.893 146.874 318.04C146.874 319.16 146.5 320.093 145.754 320.84C145.007 321.587 144.087 321.96 142.994 321.96ZM142.994 336.32C141.9 336.32 140.98 335.947 140.234 335.2C139.487 334.453 139.114 333.52 139.114 332.4C139.114 331.253 139.487 330.333 140.234 329.64C140.98 328.92 141.9 328.56 142.994 328.56C144.087 328.56 145.007 328.92 145.754 329.64C146.5 330.333 146.874 331.253 146.874 332.4C146.874 333.52 146.5 334.453 145.754 335.2C145.007 335.947 144.087 336.32 142.994 336.32ZM156.142 343.76C154.542 341.333 153.302 338.52 152.422 335.32C151.569 332.12 151.142 328.693 151.142 325.04C151.142 321.387 151.569 317.96 152.422 314.76C153.302 311.533 154.542 308.72 156.142 306.32H162.102C160.422 309.28 159.196 312.293 158.422 315.36C157.649 318.4 157.262 321.627 157.262 325.04C157.262 328.453 157.649 331.693 158.422 334.76C159.196 337.8 160.422 340.8 162.102 343.76H156.142Z" fill="black"/>
</svg>
