<svg width="150" height="150" viewBox="0 0 150 150" fill="none" xmlns="http://www.w3.org/2000/svg">
<path d="M150 75C150 116.421 116.421 150 75 150C33.5786 150 0 116.421 0 75C0 33.5786 33.5786 0 75 0C116.421 0 150 33.5786 150 75Z" fill="#C4C4C4"/>
<path d="M37.1698 108.38C35.6077 106.818 35.6077 104.286 37.1698 102.724L102.224 37.6698C103.786 36.1077 106.318 36.1077 107.88 37.6698L112.83 42.6195C114.392 44.1816 114.392 46.7143 112.83 48.2764L47.7764 113.33C46.2143 114.892 43.6816 114.892 42.1195 113.33L37.1698 108.38Z" fill="#333333"/>
<path d="M42.1195 37.6698C43.6816 36.1077 46.2143 36.1077 47.7764 37.6698L112.83 102.724C114.392 104.286 114.392 106.818 112.83 108.38L107.88 113.33C106.318 114.892 103.786 114.892 102.224 113.33L37.1698 48.2764C35.6077 46.7143 35.6077 44.1816 37.1698 42.6195L42.1195 37.6698Z" fill="#333333"/>
</svg>
