<svg width="150" height="148" viewBox="0 0 150 148" fill="none" xmlns="http://www.w3.org/2000/svg">
<path fill-rule="evenodd" clip-rule="evenodd" d="M50 100C77.6142 100 100 77.6143 100 50C100 22.3857 77.6142 0 50 0C22.3858 0 0 22.3857 0 50C0 77.6143 22.3858 100 50 100ZM50 90C72.0914 90 90 72.0914 90 50C90 27.9086 72.0914 10 50 10C27.9086 10 10 27.9086 10 50C10 72.0914 27.9086 90 50 90Z" fill="#AAAAAA"/>
<rect x="85.6066" y="74" width="90" height="14" rx="7" transform="rotate(45 85.6066 74)" fill="#AAAAAA"/>
</svg>
