<svg width="150" height="150" viewBox="0 0 150 150" fill="none" xmlns="http://www.w3.org/2000/svg">
<path d="M150 75C150 116.421 116.421 150 75 150C33.5786 150 0 116.421 0 75C0 33.5786 33.5786 0 75 0C116.421 0 150 33.5786 150 75Z" fill="#C4C4C4"/>
<path d="M92.4301 99.2328C91.0997 100.008 89.4294 99.0516 89.4236 97.5121L89.2546 52.4791C89.2488 50.9395 90.9119 49.971 92.2481 50.7358L131.332 73.1059C132.669 73.8707 132.676 75.7951 131.345 76.5699L92.4301 99.2328Z" fill="#333333"/>
<path d="M28 70C28 66.6863 30.6863 64 34 64H89C92.3137 64 95 66.6863 95 70V80C95 83.3137 92.3137 86 89 86H34C30.6863 86 28 83.3137 28 80V70Z" fill="#333333"/>
</svg>
