<svg width="150" height="150" viewBox="0 0 150 150" fill="none" xmlns="http://www.w3.org/2000/svg">
<path d="M0 75C0 33.5786 33.5786 0 75 0C116.421 0 150 33.5786 150 75C150 116.421 116.421 150 75 150C33.5786 150 0 116.421 0 75Z" fill="#C4C4C4"/>
<path d="M57.5699 50.7672C58.9003 49.9924 60.5706 50.9484 60.5764 52.4879L60.7454 97.5209C60.7512 99.0605 59.0881 100.029 57.7519 99.2642L18.6677 76.8941C17.3315 76.1293 17.3242 74.2049 18.6547 73.4301L57.5699 50.7672Z" fill="#333333"/>
<path d="M122 80C122 83.3137 119.314 86 116 86H61C57.6863 86 55 83.3137 55 80V70C55 66.6863 57.6863 64 61 64H116C119.314 64 122 66.6863 122 70V80Z" fill="#333333"/>
</svg>
