<svg width="150" height="150" viewBox="0 0 150 150" fill="none" xmlns="http://www.w3.org/2000/svg">
<path d="M150 75C150 116.421 116.421 150 75 150C33.5786 150 0 116.421 0 75C0 33.5786 33.5786 0 75 0C116.421 0 150 33.5786 150 75Z" fill="#C4C4C4"/>
<path d="M28 49C28 45.6863 30.6863 43 34 43H117C120.314 43 123 45.6863 123 49V52C123 55.3137 120.314 58 117 58H34C30.6863 58 28 55.3137 28 52V49Z" fill="#333333"/>
<path d="M28 99C28 95.6863 30.6863 93 34 93H117C120.314 93 123 95.6863 123 99V102C123 105.314 120.314 108 117 108H34C30.6863 108 28 105.314 28 102V99Z" fill="#333333"/>
<path d="M28 74C28 70.6863 30.6863 68 34 68H117C120.314 68 123 70.6863 123 74V77C123 80.3137 120.314 83 117 83H34C30.6863 83 28 80.3137 28 77V74Z" fill="#333333"/>
</svg>
