<svg width="210" height="200" viewBox="0 0 210 200" fill="none" xmlns="http://www.w3.org/2000/svg">
<path d="M98.3426 5.48935C100.438 -0.959827 109.562 -0.959817 111.657 5.48936L131.493 66.536C132.43 69.4202 135.117 71.3729 138.15 71.3729H202.338C209.119 71.3729 211.939 80.0502 206.453 84.036L154.523 121.765C152.07 123.547 151.043 126.707 151.981 129.591L171.816 190.638C173.911 197.087 166.53 202.45 161.044 198.464L109.114 160.735C106.661 158.953 103.339 158.953 100.886 160.735L48.9561 198.464C43.4701 202.45 36.0888 197.087 38.1842 190.638L58.0195 129.591C58.9566 126.707 57.93 123.547 55.4766 121.765L3.54722 84.036C-1.93878 80.0502 0.880659 71.3729 7.66172 71.3729H71.85C74.8825 71.3729 77.5702 69.4202 78.5074 66.536L98.3426 5.48935Z" fill="#FFAF1D"/>
</svg>
